<svg width="512" height="512" viewBox="0 0 512 512" xmlns="http://www.w3.org/2000/svg">
  <defs>
    <linearGradient id="logoGradient" x1="0%" y1="0%" x2="100%" y2="100%">
      <stop offset="0%" style="stop-color:#3B82F6;stop-opacity:1" />
      <stop offset="50%" style="stop-color:#1D4ED8;stop-opacity:1" />
      <stop offset="100%" style="stop-color:#1E40AF;stop-opacity:1" />
    </linearGradient>
    <linearGradient id="accentGradient" x1="0%" y1="0%" x2="100%" y2="100%">
      <stop offset="0%" style="stop-color:#60A5FA;stop-opacity:1" />
      <stop offset="100%" style="stop-color:#3B82F6;stop-opacity:1" />
    </linearGradient>
    <filter id="shadow" x="-20%" y="-20%" width="140%" height="140%">
      <feDropShadow dx="0" dy="8" stdDeviation="16" flood-color="#1E40AF" flood-opacity="0.3"/>
    </filter>
  </defs>
  
  <!-- Background Circle -->
  <circle cx="256" cy="256" r="220" fill="url(#logoGradient)" filter="url(#shadow)"/>
  
  <!-- Bluetooth Symbol Base -->
  <g transform="translate(256, 256)">
    <!-- Central Line -->
    <line x1="0" y1="-100" x2="0" y2="100" stroke="white" stroke-width="12" stroke-linecap="round"/>
    
    <!-- Upper Triangle -->
    <path d="M 0,-100 L 60,-40 L 0,0 Z" fill="white"/>
    
    <!-- Lower Triangle -->
    <path d="M 0,0 L 60,40 L 0,100 Z" fill="white"/>
    
    <!-- Connection Dots -->
    <circle cx="-80" cy="-50" r="12" fill="url(#accentGradient)"/>
    <circle cx="-80" cy="50" r="12" fill="url(#accentGradient)"/>
    <circle cx="80" cy="-50" r="12" fill="url(#accentGradient)"/>
    <circle cx="80" cy="50" r="12" fill="url(#accentGradient)"/>
    
    <!-- Connection Lines -->
    <line x1="-68" y1="-50" x2="-20" y2="-25" stroke="url(#accentGradient)" stroke-width="8" opacity="0.8"/>
    <line x1="-68" y1="50" x2="-20" y2="25" stroke="url(#accentGradient)" stroke-width="8" opacity="0.8"/>
    <line x1="68" y1="-50" x2="20" y2="-25" stroke="url(#accentGradient)" stroke-width="8" opacity="0.8"/>
    <line x1="68" y1="50" x2="20" y2="25" stroke="url(#accentGradient)" stroke-width="8" opacity="0.8"/>
  </g>
  
  <!-- Chat Bubble Accent -->
  <g transform="translate(360, 140) scale(2.5)">
    <circle cx="0" cy="0" r="16" fill="white" opacity="0.9"/>
    <circle cx="-6" cy="-2" r="3" fill="url(#logoGradient)"/>
    <circle cx="0" cy="-2" r="3" fill="url(#logoGradient)"/>
    <circle cx="6" cy="-2" r="3" fill="url(#logoGradient)"/>
  </g>
</svg>