<svg width="120" height="120" viewBox="0 0 120 120" xmlns="http://www.w3.org/2000/svg">
  <defs>
    <linearGradient id="logoGradient" x1="0%" y1="0%" x2="100%" y2="100%">
      <stop offset="0%" style="stop-color:#3B82F6;stop-opacity:1" />
      <stop offset="50%" style="stop-color:#1D4ED8;stop-opacity:1" />
      <stop offset="100%" style="stop-color:#1E40AF;stop-opacity:1" />
    </linearGradient>
    <linearGradient id="accentGradient" x1="0%" y1="0%" x2="100%" y2="100%">
      <stop offset="0%" style="stop-color:#60A5FA;stop-opacity:1" />
      <stop offset="100%" style="stop-color:#3B82F6;stop-opacity:1" />
    </linearGradient>
    <filter id="shadow" x="-20%" y="-20%" width="140%" height="140%">
      <feDropShadow dx="0" dy="4" stdDeviation="8" flood-color="#1E40AF" flood-opacity="0.2"/>
    </filter>
  </defs>
  
  <!-- Background Circle -->
  <circle cx="60" cy="60" r="50" fill="url(#logoGradient)" filter="url(#shadow)"/>
  
  <!-- Bluetooth Symbol Base -->
  <g transform="translate(60, 60)">
    <!-- Central Line -->
    <line x1="0" y1="-25" x2="0" y2="25" stroke="white" stroke-width="3" stroke-linecap="round"/>
    
    <!-- Upper Triangle -->
    <path d="M 0,-25 L 15,-10 L 0,0 Z" fill="white"/>
    
    <!-- Lower Triangle -->
    <path d="M 0,0 L 15,10 L 0,25 Z" fill="white"/>
    
    <!-- Connection Dots -->
    <circle cx="-20" cy="-12" r="3" fill="url(#accentGradient)"/>
    <circle cx="-20" cy="12" r="3" fill="url(#accentGradient)"/>
    <circle cx="20" cy="-12" r="3" fill="url(#accentGradient)"/>
    <circle cx="20" cy="12" r="3" fill="url(#accentGradient)"/>
    
    <!-- Connection Lines -->
    <line x1="-17" y1="-12" x2="-5" y2="-6" stroke="url(#accentGradient)" stroke-width="2" opacity="0.8"/>
    <line x1="-17" y1="12" x2="-5" y2="6" stroke="url(#accentGradient)" stroke-width="2" opacity="0.8"/>
    <line x1="17" y1="-12" x2="5" y2="-6" stroke="url(#accentGradient)" stroke-width="2" opacity="0.8"/>
    <line x1="17" y1="12" x2="5" y2="6" stroke="url(#accentGradient)" stroke-width="2" opacity="0.8"/>
  </g>
  
  <!-- Chat Bubble Accent -->
  <g transform="translate(85, 35)">
    <circle cx="0" cy="0" r="8" fill="white" opacity="0.9"/>
    <circle cx="-3" cy="-1" r="1.5" fill="url(#logoGradient)"/>
    <circle cx="0" cy="-1" r="1.5" fill="url(#logoGradient)"/>
    <circle cx="3" cy="-1" r="1.5" fill="url(#logoGradient)"/>
  </g>
</svg>